<svg width="795" height="200" viewBox="0 0 795 200" fill="none" xmlns="http://www.w3.org/2000/svg">
<defs>
<!-- Gradients for University Icon -->
<linearGradient id="paint0_linear_uni" x1="135.506" y1="152.183" x2="95.9979" y2="152.282" gradientUnits="userSpaceOnUse">
<stop offset="1" stop-color="#C8A544"/>
</linearGradient>

<linearGradient id="paint1_linear_uni" x1="192.265" y1="113.9704" x2="101" y2="114.5892" gradientUnits="userSpaceOnUse">
<stop stop-color="#D4AF37"/>
<stop offset="1" stop-color="#C8A544"/>
</linearGradient>

<linearGradient id="paint2_linear_uni" x1="192.265" y1="78.758" x2="101" y2="79.3768" gradientUnits="userSpaceOnUse">
<stop stop-color="#D4AF37"/>
<stop offset="1" stop-color="#C8A544"/>
</linearGradient>

<linearGradient id="paint3_linear_uni" x1="135.506" y1="152.183" x2="95.9979" y2="152.282" gradientUnits="userSpaceOnUse">
<stop stop-color="#F4E5A8"/>
<stop offset="1" stop-color="#C8A544"/>
</linearGradient>

<linearGradient id="paint4_linear_uni" x1="192.265" y1="113.9709" x2="101" y2="114.5897" gradientUnits="userSpaceOnUse">
<stop stop-color="#F4E5A8"/>
<stop offset="1" stop-color="#C8A544"/>
</linearGradient>

<linearGradient id="paint5_linear_uni" x1="192.265" y1="78.758" x2="101" y2="79.3768" gradientUnits="userSpaceOnUse">
<stop stop-color="#F4E5A8"/>
<stop offset="1" stop-color="#C8A544"/>
</linearGradient>

<linearGradient id="paint6_linear" x1="218" y1="109.5" x2="217" y2="109.5" gradientUnits="userSpaceOnUse">
<stop stop-color="#EBEBEB" stop-opacity="0.2"/>
<stop offset="0.25" stop-color="#D8D8D8"/>
<stop offset="0.5" stop-color="#CDCDCD"/>
<stop offset="0.732292" stop-color="#D8D8D8"/>
<stop offset="1" stop-color="#EBEBEB" stop-opacity="0.2"/>
</linearGradient>

<!-- Filters -->
<filter id="filter0_d_uni" x="99" y="38" width="85.0752" height="145.825" filterUnits="userSpaceOnUse" color-interpolation-filters="sRGB">
<feFlood flood-opacity="0" result="BackgroundImageFix"/>
<feColorMatrix in="SourceAlpha" type="matrix" values="0 0 0 0 0 0 0 0 0 0 0 0 0 0 0 0 0 0 127 0" result="hardAlpha"/>
<feOffset dx="15"/>
<feGaussianBlur stdDeviation="8"/>
<feComposite in2="hardAlpha" operator="out"/>
<feColorMatrix type="matrix" values="0 0 0 0 0 0 0 0 0 0 0 0 0 0 0 0 0 0 0.25 0"/>
<feBlend mode="normal" in2="BackgroundImageFix" result="effect1_dropShadow_uni"/>
<feBlend mode="normal" in="SourceGraphic" in2="effect1_dropShadow_uni" result="shape"/>
</filter>

<filter id="filter1_f_uni" x="38.5" y="108.2749" width="115.75" height="115.75" filterUnits="userSpaceOnUse" color-interpolation-filters="sRGB">
<feFlood flood-opacity="0" result="BackgroundImageFix"/>
<feBlend mode="normal" in="SourceGraphic" in2="BackgroundImageFix" result="shape"/>
<feGaussianBlur stdDeviation="14" result="effect1_foregroundBlur_uni"/>
</filter>

<filter id="filter2_f_uni" x="38.5" y="32.3252" width="115.75" height="115.75" filterUnits="userSpaceOnUse" color-interpolation-filters="sRGB">
<feFlood flood-opacity="0" result="BackgroundImageFix"/>
<feBlend mode="normal" in="SourceGraphic" in2="BackgroundImageFix" result="shape"/>
<feGaussianBlur stdDeviation="14" result="effect1_foregroundBlur_uni"/>
</filter>
</defs>

<!-- University Building Icon (SCALED UP 1.5x!) -->
<!-- Top Section: Graduation Cap Top -->
<path d="M101 45H192L185 60H108L101 45Z" fill="url(#paint2_linear_uni)"/>

<!-- Middle Section: Building Columns -->
<path d="M108 68H185V90H108V68Z" fill="url(#paint1_linear_uni)"/>

<!-- Column Details -->
<rect x="113" y="97" width="12" height="61.5" rx="1.5" fill="url(#paint1_linear_uni)"/>
<rect x="131" y="97" width="12" height="61.5" rx="1.5" fill="url(#paint1_linear_uni)"/>
<rect x="149" y="97" width="12" height="61.5" rx="1.5" fill="url(#paint1_linear_uni)"/>
<rect x="167" y="97" width="12" height="61.5" rx="1.5" fill="url(#paint1_linear_uni)"/>

<!-- Base Foundation -->
<path d="M101 162H192V174H101V162Z" fill="url(#paint0_linear_uni)"/>

<!-- Mask for effects -->
<mask id="mask0_uni" style="mask-type:alpha" maskUnits="userSpaceOnUse" x="101" y="45" width="91" height="129">
<path d="M101 45H192L185 60H108L101 45Z" fill="url(#paint5_linear_uni)"/>
<path d="M108 68H185V90H108V68Z" fill="url(#paint4_linear_uni)"/>
<rect x="113" y="97" width="12" height="61.5" rx="1.5" fill="url(#paint4_linear_uni)"/>
<rect x="131" y="97" width="12" height="61.5" rx="1.5" fill="url(#paint4_linear_uni)"/>
<rect x="149" y="97" width="12" height="61.5" rx="1.5" fill="url(#paint4_linear_uni)"/>
<rect x="167" y="97" width="12" height="61.5" rx="1.5" fill="url(#paint4_linear_uni)"/>
<path d="M101 162H192V174H101V162Z" fill="url(#paint3_linear_uni)"/>
</mask>

<g mask="url(#mask0_uni)">
<g filter="url(#filter0_d_uni)">
<mask id="mask1_uni" style="mask-type:alpha" maskUnits="userSpaceOnUse" x="101" y="45" width="91" height="129">
<path d="M101 45H192L185 60H108L101 45Z" fill="black" fill-opacity="0.1"/>
<path d="M108 68H185V90H108V68Z" fill="black" fill-opacity="0.1"/>
<rect x="113" y="97" width="12" height="61.5" rx="1.5" fill="black" fill-opacity="0.1"/>
<rect x="131" y="97" width="12" height="61.5" rx="1.5" fill="black" fill-opacity="0.1"/>
<rect x="149" y="97" width="12" height="61.5" rx="1.5" fill="black" fill-opacity="0.1"/>
<rect x="167" y="97" width="12" height="61.5" rx="1.5" fill="black" fill-opacity="0.1"/>
<path d="M101 162H192V174H101V162Z" fill="black" fill-opacity="0.1"/>
</mask>
<g mask="url(#mask1_uni)">
<path d="M102.42 24.4759C117.807 11.4831 153.613 24.4759 153.613 24.4759H102.42C98.3989 27.9125 96.2058 33.2376 96.2058 40.9728C96.2058 81.68 138.552 96.392 138.552 123.174C138.552 149.4 98.5958 166.272 96.7594 205.731H153.613C153.613 205.731 96.2058 246.081 96.2058 212.515C96.2058 211.744 96.2239 210.984 96.2594 210.231H71.9063L77.4879 24.4759H102.42Z" fill="black" fill-opacity="0.1"/>
</g>
</g>

<!-- Glow Effects -->
<g filter="url(#filter1_f_uni)">
<circle cx="96.375" cy="166.15" r="34.3125" fill="#C8A544"/>
</g>
<g filter="url(#filter2_f_uni)">
<circle cx="96.375" cy="90.2002" r="34.3125" fill="#C8A544"/>
</g>
</g>

<!-- Divider Line -->
<path d="M218 50L218 170" stroke="url(#paint6_linear)" stroke-width="3" stroke-linecap="round"/>

<!-- Text: NUST Forms (MUCH BIGGER!) -->
<text x="260" y="125" font-family="Inter, Arial, sans-serif" font-size="70" font-weight="700" fill="#0F172A" letter-spacing="-2">NUST Forms</text>

</svg>